<svg xmlns="http://www.w3.org/2000/svg" viewBox="0 0 1600 900">
<defs>
<linearGradient id="bg" x1="0" y1="0" x2="1" y2="1">
<stop offset="0" stop-color="#111827"/>
<stop offset="0.58" stop-color="#1d2a40"/>
<stop offset="1" stop-color="#273852"/>
</linearGradient>
<pattern id="grid" width="80" height="80" patternUnits="userSpaceOnUse">
<path d="M80 0H0V80" fill="none" stroke="#fff" stroke-opacity=".05" stroke-width="1"/>
</pattern>
</defs>
<rect width="1600" height="900" fill="url(#bg)"/>
<rect width="1600" height="900" fill="url(#grid)"/>
<g fill="none" stroke="#d9b56d" stroke-width="5" opacity=".7">
<path d="M90 760 L420 450 L670 660 L955 320 L1290 650 L1510 430"/>
<path d="M220 720 V420 H540 V720"/>
<path d="M740 710 V360 H1110 V710"/>
<path d="M1190 710 V500 H1460 V710"/>
</g>
<g fill="#fff" opacity=".08">
<rect x="250" y="520" width="80" height="95"/><rect x="390" y="520" width="80" height="95"/>
<rect x="805" y="450" width="95" height="110"/><rect x="950" y="450" width="95" height="110"/>
<rect x="1240" y="555" width="75" height="90"/><rect x="1360" y="555" width="75" height="90"/>
</g>
</svg>